<?xml version="1.0" encoding="utf-8"?>
<!-- Generator: Adobe Illustrator 26.2.1, SVG Export Plug-In . SVG Version: 6.00 Build 0)  -->
<svg version="1.1" id="Layer_1" xmlns="http://www.w3.org/2000/svg" xmlns:xlink="http://www.w3.org/1999/xlink" x="0px" y="0px"
	 viewBox="0 0 168.93 141.1" style="enable-background:new 0 0 168.93 141.1;" xml:space="preserve">
<style type="text/css">
	.st0{fill:#191919;}
</style>
<g>
	<path class="st0" d="M45.04,95.06h11.3v2.3h-8.86v5.66h8.25v2.3h-8.25v7.81h-2.44V95.06z"/>
	<path class="st0" d="M45.04,95.06h11.3v2.3h-8.86v5.66h8.25v2.3h-8.25v7.81h-2.44V95.06z"/>
	<path class="st0" d="M70.77,113.58c-1.37,0-2.63-0.24-3.78-0.73c-1.15-0.48-2.14-1.15-2.96-2c-0.82-0.85-1.46-1.85-1.93-3.01
		c-0.47-1.16-0.7-2.41-0.7-3.75s0.23-2.59,0.7-3.75c0.47-1.16,1.11-2.16,1.93-3.01c0.82-0.85,1.81-1.52,2.96-2
		c1.15-0.48,2.41-0.73,3.78-0.73s2.63,0.24,3.78,0.73c1.15,0.48,2.14,1.15,2.96,2c0.82,0.85,1.46,1.85,1.93,3.01
		c0.47,1.16,0.7,2.41,0.7,3.75s-0.23,2.59-0.7,3.75c-0.47,1.16-1.11,2.16-1.93,3.01c-0.82,0.85-1.81,1.52-2.96,2
		C73.4,113.34,72.14,113.58,70.77,113.58z M70.77,111.28c1.03,0,1.96-0.19,2.79-0.57c0.83-0.38,1.54-0.9,2.13-1.54
		c0.59-0.65,1.05-1.41,1.37-2.28c0.32-0.88,0.48-1.81,0.48-2.79s-0.16-1.92-0.48-2.79c-0.32-0.88-0.78-1.64-1.37-2.28
		c-0.59-0.65-1.3-1.16-2.13-1.54c-0.83-0.38-1.76-0.57-2.79-0.57c-1.03,0-1.96,0.19-2.79,0.57c-0.83,0.38-1.54,0.9-2.13,1.54
		c-0.59,0.65-1.05,1.41-1.37,2.28c-0.32,0.88-0.48,1.81-0.48,2.79s0.16,1.92,0.48,2.79c0.32,0.88,0.78,1.64,1.37,2.28
		c0.59,0.65,1.3,1.16,2.13,1.54C68.81,111.09,69.74,111.28,70.77,111.28z"/>
	<path class="st0" d="M45.04,123.04h2.44v15.76h8.25v2.3H45.04V123.04z"/>
	<path class="st0" d="M69.78,123.04h2.21l7.69,18.06h-2.84l-1.8-4.46h-8.56l-1.78,4.46h-2.84L69.78,123.04z M74.15,134.49
		l-3.35-8.29h-0.05l-3.4,8.29H74.15z"/>
	<path class="st0" d="M85.81,95.06h6.32c1.15,0,2.1,0.16,2.84,0.47c0.74,0.31,1.33,0.71,1.76,1.2c0.43,0.48,0.73,1.03,0.9,1.63
		c0.17,0.6,0.25,1.19,0.25,1.75c0,0.58-0.1,1.14-0.3,1.67s-0.5,1.02-0.88,1.45c-0.38,0.43-0.85,0.8-1.4,1.1
		c-0.55,0.3-1.16,0.48-1.84,0.55l5.1,8.24h-3.05l-4.57-7.96h-2.72v7.96h-2.44V95.06z M88.25,103.02h3.2c0.47,0,0.94-0.04,1.41-0.11
		c0.47-0.08,0.88-0.22,1.24-0.42c0.36-0.2,0.66-0.5,0.88-0.88c0.22-0.38,0.33-0.88,0.33-1.49s-0.11-1.11-0.33-1.49
		s-0.51-0.68-0.88-0.88c-0.36-0.2-0.78-0.34-1.24-0.42c-0.47-0.08-0.94-0.11-1.41-0.11h-3.2V103.02z"/>
	<path class="st0" d="M85.95,123.04h6.25c0.78,0,1.5,0.09,2.17,0.28c0.67,0.19,1.24,0.46,1.73,0.83s0.86,0.83,1.14,1.4
		c0.28,0.57,0.42,1.24,0.42,2c0,1.04-0.29,1.88-0.86,2.54c-0.58,0.65-1.32,1.14-2.23,1.44v0.05c0.54,0.03,1.05,0.17,1.52,0.42
		c0.47,0.25,0.88,0.57,1.23,0.97c0.35,0.4,0.62,0.86,0.83,1.39c0.2,0.53,0.3,1.1,0.3,1.71c0,0.82-0.16,1.53-0.49,2.16
		c-0.33,0.62-0.78,1.14-1.36,1.57c-0.58,0.43-1.24,0.75-2.01,0.97c-0.76,0.22-1.58,0.33-2.46,0.33h-6.17V123.04z M88.39,130.54h3.33
		c0.46,0,0.89-0.05,1.29-0.14c0.41-0.09,0.76-0.25,1.07-0.47s0.55-0.5,0.72-0.84c0.18-0.34,0.27-0.76,0.27-1.25
		c0-0.71-0.23-1.33-0.69-1.86c-0.46-0.53-1.18-0.79-2.16-0.79h-3.83V130.54z M88.39,138.96h3.58c0.37,0,0.78-0.04,1.23-0.11
		c0.45-0.08,0.87-0.23,1.26-0.46c0.39-0.23,0.72-0.54,0.99-0.93c0.27-0.39,0.41-0.91,0.41-1.56c0-1.07-0.35-1.88-1.04-2.41
		c-0.69-0.54-1.63-0.8-2.82-0.8h-3.6V138.96z"/>
	<path class="st0" d="M103.58,95.06h6.32c1.15,0,2.1,0.16,2.84,0.47c0.74,0.31,1.33,0.71,1.76,1.2c0.43,0.48,0.73,1.03,0.9,1.63
		c0.17,0.6,0.25,1.19,0.25,1.75c0,0.58-0.1,1.14-0.3,1.67s-0.5,1.02-0.88,1.45c-0.38,0.43-0.85,0.8-1.4,1.1
		c-0.55,0.3-1.16,0.48-1.84,0.55l5.1,8.24h-3.05l-4.57-7.96h-2.72v7.96h-2.44V95.06z M106.02,103.02h3.2c0.47,0,0.94-0.04,1.41-0.11
		c0.47-0.08,0.88-0.22,1.24-0.42c0.36-0.2,0.66-0.5,0.88-0.88c0.22-0.38,0.33-0.88,0.33-1.49s-0.11-1.11-0.33-1.49
		s-0.51-0.68-0.88-0.88c-0.36-0.2-0.78-0.34-1.24-0.42c-0.47-0.08-0.94-0.11-1.41-0.11h-3.2V103.02z"/>
	<path class="st0" d="M121.32,95.06h11.6v2.3h-9.16v5.38h8.53v2.3h-8.53v5.79h9.62v2.3h-12.06V95.06z"/>
	<path class="st0" d="M139.44,109.34c0.44,0.66,1,1.15,1.69,1.47c0.69,0.31,1.39,0.47,2.12,0.47c0.41,0,0.82-0.06,1.24-0.19
		c0.42-0.13,0.81-0.32,1.15-0.57c0.35-0.25,0.63-0.57,0.85-0.94c0.22-0.37,0.33-0.81,0.33-1.3c0-0.7-0.22-1.23-0.66-1.59
		c-0.44-0.37-0.99-0.67-1.64-0.92c-0.65-0.25-1.36-0.48-2.13-0.71s-1.48-0.55-2.13-0.96c-0.65-0.41-1.2-0.96-1.64-1.65
		c-0.44-0.69-0.66-1.62-0.66-2.79c0-0.53,0.11-1.09,0.34-1.68c0.23-0.6,0.59-1.14,1.08-1.63c0.49-0.49,1.12-0.91,1.89-1.24
		c0.77-0.33,1.7-0.5,2.78-0.5c0.98,0,1.92,0.14,2.82,0.41c0.9,0.27,1.68,0.83,2.36,1.66l-1.98,1.81c-0.3-0.48-0.74-0.86-1.29-1.15
		c-0.56-0.29-1.19-0.43-1.9-0.43c-0.68,0-1.24,0.09-1.69,0.27c-0.45,0.18-0.81,0.41-1.08,0.69c-0.27,0.28-0.46,0.58-0.57,0.91
		c-0.11,0.32-0.17,0.62-0.17,0.89c0,0.77,0.22,1.35,0.66,1.76c0.44,0.41,0.99,0.74,1.64,1c0.65,0.25,1.36,0.48,2.13,0.69
		c0.77,0.2,1.48,0.49,2.13,0.85c0.65,0.37,1.2,0.86,1.64,1.48c0.44,0.62,0.66,1.48,0.66,2.56c0,0.87-0.17,1.65-0.5,2.35
		c-0.33,0.7-0.77,1.28-1.33,1.76c-0.56,0.48-1.22,0.84-1.98,1.1c-0.76,0.25-1.57,0.38-2.44,0.38c-1.15,0-2.24-0.2-3.27-0.61
		c-1.03-0.41-1.85-1.04-2.46-1.89L139.44,109.34z"/>
	<path class="st0" d="M160.7,97.36h-5.79v-2.3h14.01v2.3h-5.79v15.76h-2.44V97.36z"/>
</g>
<g>
	<path class="st0" d="M94.96,6.84L93.11,0L47.48,12.38L1.86,0L0,6.84l39.22,10.65L0,28.13l1.86,6.84l45.63-12.38l45.63,12.38
		l1.86-6.84L55.74,17.48L94.96,6.84z"/>
	<polygon class="st0" points="88.89,49.27 47.48,28.96 6.07,49.27 9.19,55.63 47.48,36.86 85.77,55.63 	"/>
	<polygon class="st0" points="77.84,66.89 47.48,44.65 17.13,66.89 21.32,72.61 47.48,53.44 73.65,72.61 	"/>
	<polygon class="st0" points="62.02,79.09 47.48,63.36 32.95,79.09 38.15,83.9 47.48,73.8 56.81,83.9 	"/>
</g>
</svg>
