<?xml version="1.0" encoding="utf-8"?>
<!-- Generator: Adobe Illustrator 26.2.1, SVG Export Plug-In . SVG Version: 6.00 Build 0)  -->
<svg version="1.1" id="Layer_1" xmlns="http://www.w3.org/2000/svg" xmlns:xlink="http://www.w3.org/1999/xlink" x="0px" y="0px"
	 viewBox="0 0 48 48" style="enable-background:new 0 0 48 48;" xml:space="preserve">
<style type="text/css">
	.st0{fill:none;stroke:#9a8f77;stroke-width:1.6;stroke-linejoin:round;stroke-miterlimit:10;}
	.st1{fill:none;stroke:#9a8f77;stroke-width:1.6;stroke-linecap:round;stroke-linejoin:round;stroke-miterlimit:10;}
</style>
<g>
	<polygon class="st0" points="4.95,39.3 26.95,25.3 20.95,15.3 	"/>
	<polygon class="st0" points="29.95,28.3 4.95,39.3 42.95,34.3 	"/>
	<line class="st0" x1="25.95" y1="28.3" x2="26.95" y2="25.3"/>
</g>
<path class="st1" d="M33.95,26.3c0,0,4.02-0.1,5-5c1-5-4-5-4-5s-4,0-4,4c0,0,0,3,4,3c0,0,8,0,8-8c0,0,0-6-7-6c0,0-3,0-6,2"/>
</svg>
